<svg width="24" height="25" viewBox="0 0 24 25" fill="none" xmlns="http://www.w3.org/2000/svg">
<path d="M20 12.25V22.25H4V12.25" stroke="black" stroke-width="2" stroke-linecap="round" stroke-linejoin="round"/>
<path d="M22 7.25H2V12.25H22V7.25Z" stroke="black" stroke-width="2" stroke-linecap="round" stroke-linejoin="round"/>
<path d="M12 22.25V7.25" stroke="black" stroke-width="2" stroke-linecap="round" stroke-linejoin="round"/>
<path d="M12 7.25H7.5C6.83696 7.25 6.20107 6.98661 5.73223 6.51777C5.26339 6.04893 5 5.41304 5 4.75C5 4.08696 5.26339 3.45107 5.73223 2.98223C6.20107 2.51339 6.83696 2.25 7.5 2.25C11 2.25 12 7.25 12 7.25Z" stroke="black" stroke-width="2" stroke-linecap="round" stroke-linejoin="round"/>
<path d="M12 7.25H16.5C17.163 7.25 17.7989 6.98661 18.2678 6.51777C18.7366 6.04893 19 5.41304 19 4.75C19 4.08696 18.7366 3.45107 18.2678 2.98223C17.7989 2.51339 17.163 2.25 16.5 2.25C13 2.25 12 7.25 12 7.25Z" stroke="black" stroke-width="2" stroke-linecap="round" stroke-linejoin="round"/>
</svg>
