<svg width="24" height="25" viewBox="0 0 24 25" fill="none" xmlns="http://www.w3.org/2000/svg">
<path d="M10 13.25C10.4295 13.8242 10.9774 14.2992 11.6066 14.643C12.2357 14.9867 12.9315 15.1911 13.6467 15.2424C14.3618 15.2936 15.0796 15.1904 15.7513 14.9398C16.4231 14.6892 17.0331 14.2971 17.54 13.79L20.54 10.79C21.4508 9.84702 21.9548 8.584 21.9434 7.27302C21.932 5.96204 21.4061 4.70797 20.4791 3.78093C19.5521 2.85389 18.298 2.32805 16.987 2.31666C15.676 2.30526 14.413 2.80924 13.47 3.72003L11.75 5.43003" stroke="black" stroke-width="2" stroke-linecap="round" stroke-linejoin="round"/>
<path d="M14 11.25C13.5705 10.6759 13.0226 10.2008 12.3935 9.85704C11.7643 9.51328 11.0685 9.30886 10.3534 9.25765C9.63821 9.20643 8.92041 9.30961 8.24866 9.5602C7.5769 9.81079 6.96689 10.2029 6.46 10.71L3.46 13.71C2.54921 14.653 2.04524 15.916 2.05663 17.227C2.06802 18.538 2.59387 19.792 3.52091 20.7191C4.44795 21.6461 5.70201 22.172 7.013 22.1834C8.32398 22.1947 9.58699 21.6908 10.53 20.78L12.24 19.07" stroke="black" stroke-width="2" stroke-linecap="round" stroke-linejoin="round"/>
</svg>
